<svg width="13" height="13" viewBox="0 0 13 13" fill="none" xmlns="http://www.w3.org/2000/svg">
<path d="M11.2444 4.40728C11.2392 4.01511 11.1658 3.62684 11.0275 3.25983C10.9075 2.95027 10.7243 2.66913 10.4896 2.43437C10.2548 2.19962 9.97369 2.01642 9.66413 1.89647C9.30184 1.76047 8.9191 1.68694 8.53222 1.67899C8.03409 1.65673 7.87616 1.65051 6.6117 1.65051C5.34723 1.65051 5.18516 1.65051 4.69066 1.67899C4.30395 1.68699 3.92139 1.76053 3.55927 1.89647C3.24966 2.01633 2.96847 2.19951 2.73371 2.43427C2.49895 2.66903 2.31577 2.95022 2.19591 3.25983C2.05964 3.62184 1.98626 4.00449 1.97895 4.39122C1.95668 4.88987 1.94995 5.04779 1.94995 6.31226C1.94995 7.57673 1.94995 7.73828 1.97895 8.2333C1.98671 8.62061 2.05972 9.00275 2.19591 9.36572C2.31597 9.67524 2.49928 9.95631 2.73413 10.191C2.96897 10.4256 3.25018 10.6087 3.55979 10.7286C3.92092 10.87 4.30354 10.9488 4.69118 10.9616C5.18982 10.9838 5.34775 10.9906 6.61222 10.9906C7.87668 10.9906 8.03875 10.9906 8.53325 10.9616C8.92013 10.954 9.30289 10.8806 9.66516 10.7446C9.97465 10.6245 10.2557 10.4413 10.4905 10.2065C10.7252 9.97181 10.9084 9.69074 11.0285 9.38126C11.1647 9.0188 11.2377 8.63666 11.2455 8.24883C11.2677 7.75071 11.2745 7.59278 11.2745 6.32779C11.2734 5.06333 11.2734 4.90281 11.2444 4.40728ZM6.60859 8.70346C5.28613 8.70346 4.21481 7.63213 4.21481 6.30967C4.21481 4.98721 5.28613 3.91588 6.60859 3.91588C7.24346 3.91588 7.85233 4.16809 8.30125 4.61701C8.75018 5.06593 9.00238 5.6748 9.00238 6.30967C9.00238 6.94454 8.75018 7.55341 8.30125 8.00233C7.85233 8.45126 7.24346 8.70346 6.60859 8.70346ZM9.09765 4.38553C8.78853 4.38553 8.53947 4.13595 8.53947 3.82734C8.53947 3.75407 8.5539 3.68152 8.58193 3.61383C8.60997 3.54614 8.65107 3.48463 8.70288 3.43283C8.75469 3.38102 8.81619 3.33992 8.88388 3.31188C8.95158 3.28384 9.02413 3.26941 9.09739 3.26941C9.17066 3.26941 9.24321 3.28384 9.3109 3.31188C9.3786 3.33992 9.4401 3.38102 9.49191 3.43283C9.54372 3.48463 9.58481 3.54614 9.61285 3.61383C9.64089 3.68152 9.65532 3.75407 9.65532 3.82734C9.65532 4.13595 9.40574 4.38553 9.09765 4.38553Z" fill="white"/>
<path d="M6.60866 7.86436C7.46744 7.86436 8.16361 7.16818 8.16361 6.30941C8.16361 5.45063 7.46744 4.75446 6.60866 4.75446C5.74989 4.75446 5.05371 5.45063 5.05371 6.30941C5.05371 7.16818 5.74989 7.86436 6.60866 7.86436Z" fill="white"/>
</svg>
